<mxfile host="app.diagrams.net" modified="2021-06-16T09:34:19.063Z" agent="5.0 (Windows NT 10.0; Win64; x64) AppleWebKit/537.36 (KHTML, like Gecko) Chrome/90.0.4430.72 Safari/537.36" etag="yxScCCFDl99P0f-sBJX8" version="14.7.6" type="github">
  <diagram id="ZFzpthJSprnk8D9yMa9Z" name="第 1 页">
    <mxGraphModel dx="1422" dy="762" grid="1" gridSize="10" guides="1" tooltips="1" connect="1" arrows="1" fold="1" page="1" pageScale="1" pageWidth="1169" pageHeight="827" math="0" shadow="0">
      <root>
        <mxCell id="0" />
        <mxCell id="1" parent="0" />
        <mxCell id="NNSwcnHffDECImnnOeYG-1" value="AstAlways (final)" style="swimlane;fontStyle=1;align=center;verticalAlign=top;childLayout=stackLayout;horizontal=1;startSize=26;horizontalStack=0;resizeParent=1;resizeParentMax=0;resizeLast=0;collapsible=1;marginBottom=0;" vertex="1" parent="1">
          <mxGeometry x="200" y="40" width="230" height="94" as="geometry" />
        </mxCell>
        <mxCell id="NNSwcnHffDECImnnOeYG-2" value="- m_keyword: VAlwaysKwd" style="text;strokeColor=none;fillColor=none;align=left;verticalAlign=top;spacingLeft=4;spacingRight=4;overflow=hidden;rotatable=0;points=[[0,0.5],[1,0.5]];portConstraint=eastwest;" vertex="1" parent="NNSwcnHffDECImnnOeYG-1">
          <mxGeometry y="26" width="230" height="26" as="geometry" />
        </mxCell>
        <mxCell id="NNSwcnHffDECImnnOeYG-3" value="" style="line;strokeWidth=1;fillColor=none;align=left;verticalAlign=middle;spacingTop=-1;spacingLeft=3;spacingRight=3;rotatable=0;labelPosition=right;points=[];portConstraint=eastwest;" vertex="1" parent="NNSwcnHffDECImnnOeYG-1">
          <mxGeometry y="52" width="230" height="8" as="geometry" />
        </mxCell>
        <mxCell id="NNSwcnHffDECImnnOeYG-4" value="+ sensesp(): AstSenTree*&#xa;   // op1 = 敏感变量列表" style="text;strokeColor=none;fillColor=none;align=left;verticalAlign=top;spacingLeft=4;spacingRight=4;overflow=hidden;rotatable=0;points=[[0,0.5],[1,0.5]];portConstraint=eastwest;" vertex="1" parent="NNSwcnHffDECImnnOeYG-1">
          <mxGeometry y="60" width="230" height="34" as="geometry" />
        </mxCell>
        <mxCell id="NNSwcnHffDECImnnOeYG-5" value="AstTimingControl (final)" style="swimlane;fontStyle=1;align=center;verticalAlign=top;childLayout=stackLayout;horizontal=1;startSize=26;horizontalStack=0;resizeParent=1;resizeParentMax=0;resizeLast=0;collapsible=1;marginBottom=0;" vertex="1" parent="1">
          <mxGeometry x="730" y="40" width="220" height="106" as="geometry" />
        </mxCell>
        <mxCell id="NNSwcnHffDECImnnOeYG-6" value="" style="line;strokeWidth=1;fillColor=none;align=left;verticalAlign=middle;spacingTop=-1;spacingLeft=3;spacingRight=3;rotatable=0;labelPosition=right;points=[];portConstraint=eastwest;" vertex="1" parent="NNSwcnHffDECImnnOeYG-5">
          <mxGeometry y="26" width="220" height="8" as="geometry" />
        </mxCell>
        <mxCell id="NNSwcnHffDECImnnOeYG-7" value="+ sensesp(): AstSenTree*&#xa;   op1 = 敏感变量树" style="text;strokeColor=none;fillColor=none;align=left;verticalAlign=top;spacingLeft=4;spacingRight=4;overflow=hidden;rotatable=0;points=[[0,0.5],[1,0.5]];portConstraint=eastwest;" vertex="1" parent="NNSwcnHffDECImnnOeYG-5">
          <mxGeometry y="34" width="220" height="36" as="geometry" />
        </mxCell>
        <mxCell id="NNSwcnHffDECImnnOeYG-8" value="+ stmtsp(): AstNode*&#xa;   op2 = 语句" style="text;strokeColor=none;fillColor=none;align=left;verticalAlign=top;spacingLeft=4;spacingRight=4;overflow=hidden;rotatable=0;points=[[0,0.5],[1,0.5]];portConstraint=eastwest;" vertex="1" parent="NNSwcnHffDECImnnOeYG-5">
          <mxGeometry y="70" width="220" height="36" as="geometry" />
        </mxCell>
        <mxCell id="NNSwcnHffDECImnnOeYG-28" value="AstSenTree (final)" style="swimlane;fontStyle=1;align=center;verticalAlign=top;childLayout=stackLayout;horizontal=1;startSize=26;horizontalStack=0;resizeParent=1;resizeParentMax=0;resizeLast=0;collapsible=1;marginBottom=0;" vertex="1" parent="1">
          <mxGeometry x="445" y="230" width="235" height="208" as="geometry" />
        </mxCell>
        <mxCell id="NNSwcnHffDECImnnOeYG-32" value="- m_multi: bool  //Created from combo logic by ORing multiple clock domains" style="text;strokeColor=none;fillColor=none;align=left;verticalAlign=top;spacingLeft=4;spacingRight=4;overflow=hidden;rotatable=0;points=[[0,0.5],[1,0.5]];portConstraint=eastwest;whiteSpace=wrap;" vertex="1" parent="NNSwcnHffDECImnnOeYG-28">
          <mxGeometry y="26" width="235" height="34" as="geometry" />
        </mxCell>
        <mxCell id="NNSwcnHffDECImnnOeYG-29" value="" style="line;strokeWidth=1;fillColor=none;align=left;verticalAlign=middle;spacingTop=-1;spacingLeft=3;spacingRight=3;rotatable=0;labelPosition=right;points=[];portConstraint=eastwest;" vertex="1" parent="NNSwcnHffDECImnnOeYG-28">
          <mxGeometry y="60" width="235" height="8" as="geometry" />
        </mxCell>
        <mxCell id="NNSwcnHffDECImnnOeYG-30" value="+ sensesp(): AstSenItem*&#xa;   op1 = 敏感变量列表" style="text;strokeColor=none;fillColor=none;align=left;verticalAlign=top;spacingLeft=4;spacingRight=4;overflow=hidden;rotatable=0;points=[[0,0.5],[1,0.5]];portConstraint=eastwest;" vertex="1" parent="NNSwcnHffDECImnnOeYG-28">
          <mxGeometry y="68" width="235" height="36" as="geometry" />
        </mxCell>
        <mxCell id="NNSwcnHffDECImnnOeYG-33" value="+ hasClocked(): bool 包含clocked语句" style="text;strokeColor=none;fillColor=none;align=left;verticalAlign=top;spacingLeft=4;spacingRight=4;overflow=hidden;rotatable=0;points=[[0,0.5],[1,0.5]];portConstraint=eastwest;" vertex="1" parent="NNSwcnHffDECImnnOeYG-28">
          <mxGeometry y="104" width="235" height="26" as="geometry" />
        </mxCell>
        <mxCell id="NNSwcnHffDECImnnOeYG-34" value="+ hasSettle(): bool  包含SETTLE敏感变量" style="text;strokeColor=none;fillColor=none;align=left;verticalAlign=top;spacingLeft=4;spacingRight=4;overflow=hidden;rotatable=0;points=[[0,0.5],[1,0.5]];portConstraint=eastwest;" vertex="1" parent="NNSwcnHffDECImnnOeYG-28">
          <mxGeometry y="130" width="235" height="26" as="geometry" />
        </mxCell>
        <mxCell id="NNSwcnHffDECImnnOeYG-36" value="+ hasInitial(): bool 包含INITIAL敏感变量" style="text;strokeColor=none;fillColor=none;align=left;verticalAlign=top;spacingLeft=4;spacingRight=4;overflow=hidden;rotatable=0;points=[[0,0.5],[1,0.5]];portConstraint=eastwest;" vertex="1" parent="NNSwcnHffDECImnnOeYG-28">
          <mxGeometry y="156" width="235" height="26" as="geometry" />
        </mxCell>
        <mxCell id="NNSwcnHffDECImnnOeYG-35" value="+ hasCombo(): bool 包含COMBO敏感变量" style="text;strokeColor=none;fillColor=none;align=left;verticalAlign=top;spacingLeft=4;spacingRight=4;overflow=hidden;rotatable=0;points=[[0,0.5],[1,0.5]];portConstraint=eastwest;" vertex="1" parent="NNSwcnHffDECImnnOeYG-28">
          <mxGeometry y="182" width="235" height="26" as="geometry" />
        </mxCell>
        <mxCell id="NNSwcnHffDECImnnOeYG-37" value="AstSenItem (final)" style="swimlane;fontStyle=1;align=center;verticalAlign=top;childLayout=stackLayout;horizontal=1;startSize=26;horizontalStack=0;resizeParent=1;resizeParentMax=0;resizeLast=0;collapsible=1;marginBottom=0;" vertex="1" parent="1">
          <mxGeometry x="445" y="500" width="235" height="292" as="geometry" />
        </mxCell>
        <mxCell id="NNSwcnHffDECImnnOeYG-38" value="- m_edgeType: VEdgeType" style="text;strokeColor=none;fillColor=none;align=left;verticalAlign=top;spacingLeft=4;spacingRight=4;overflow=hidden;rotatable=0;points=[[0,0.5],[1,0.5]];portConstraint=eastwest;whiteSpace=wrap;" vertex="1" parent="NNSwcnHffDECImnnOeYG-37">
          <mxGeometry y="26" width="235" height="24" as="geometry" />
        </mxCell>
        <mxCell id="NNSwcnHffDECImnnOeYG-39" value="" style="line;strokeWidth=1;fillColor=none;align=left;verticalAlign=middle;spacingTop=-1;spacingLeft=3;spacingRight=3;rotatable=0;labelPosition=right;points=[];portConstraint=eastwest;" vertex="1" parent="NNSwcnHffDECImnnOeYG-37">
          <mxGeometry y="50" width="235" height="8" as="geometry" />
        </mxCell>
        <mxCell id="NNSwcnHffDECImnnOeYG-40" value="+ sensp(): AstNode*&#xa;+ varrefp(): AstNodeVarRef*&#xa;   op1 = 敏感变量" style="text;strokeColor=none;fillColor=none;align=left;verticalAlign=top;spacingLeft=4;spacingRight=4;overflow=hidden;rotatable=0;points=[[0,0.5],[1,0.5]];portConstraint=eastwest;" vertex="1" parent="NNSwcnHffDECImnnOeYG-37">
          <mxGeometry y="58" width="235" height="52" as="geometry" />
        </mxCell>
        <mxCell id="NNSwcnHffDECImnnOeYG-41" value="+ isClocked(): bool 包含clocked语句" style="text;strokeColor=none;fillColor=none;align=left;verticalAlign=top;spacingLeft=4;spacingRight=4;overflow=hidden;rotatable=0;points=[[0,0.5],[1,0.5]];portConstraint=eastwest;" vertex="1" parent="NNSwcnHffDECImnnOeYG-37">
          <mxGeometry y="110" width="235" height="26" as="geometry" />
        </mxCell>
        <mxCell id="NNSwcnHffDECImnnOeYG-42" value="+ isSettle(): bool  包含SETTLE敏感变量" style="text;strokeColor=none;fillColor=none;align=left;verticalAlign=top;spacingLeft=4;spacingRight=4;overflow=hidden;rotatable=0;points=[[0,0.5],[1,0.5]];portConstraint=eastwest;" vertex="1" parent="NNSwcnHffDECImnnOeYG-37">
          <mxGeometry y="136" width="235" height="26" as="geometry" />
        </mxCell>
        <mxCell id="NNSwcnHffDECImnnOeYG-43" value="+ isInitial(): bool 包含INITIAL敏感变量" style="text;strokeColor=none;fillColor=none;align=left;verticalAlign=top;spacingLeft=4;spacingRight=4;overflow=hidden;rotatable=0;points=[[0,0.5],[1,0.5]];portConstraint=eastwest;" vertex="1" parent="NNSwcnHffDECImnnOeYG-37">
          <mxGeometry y="162" width="235" height="26" as="geometry" />
        </mxCell>
        <mxCell id="NNSwcnHffDECImnnOeYG-45" value="+ isCombo(): bool 包含COMBO敏感变量" style="text;strokeColor=none;fillColor=none;align=left;verticalAlign=top;spacingLeft=4;spacingRight=4;overflow=hidden;rotatable=0;points=[[0,0.5],[1,0.5]];portConstraint=eastwest;" vertex="1" parent="NNSwcnHffDECImnnOeYG-37">
          <mxGeometry y="188" width="235" height="26" as="geometry" />
        </mxCell>
        <mxCell id="NNSwcnHffDECImnnOeYG-44" value="+ isIllegal(): bool" style="text;strokeColor=none;fillColor=none;align=left;verticalAlign=top;spacingLeft=4;spacingRight=4;overflow=hidden;rotatable=0;points=[[0,0.5],[1,0.5]];portConstraint=eastwest;" vertex="1" parent="NNSwcnHffDECImnnOeYG-37">
          <mxGeometry y="214" width="235" height="26" as="geometry" />
        </mxCell>
        <mxCell id="NNSwcnHffDECImnnOeYG-47" value="+ isNever(): bool" style="text;strokeColor=none;fillColor=none;align=left;verticalAlign=top;spacingLeft=4;spacingRight=4;overflow=hidden;rotatable=0;points=[[0,0.5],[1,0.5]];portConstraint=eastwest;" vertex="1" parent="NNSwcnHffDECImnnOeYG-37">
          <mxGeometry y="240" width="235" height="26" as="geometry" />
        </mxCell>
        <mxCell id="NNSwcnHffDECImnnOeYG-46" value="+ hasVar(): bool" style="text;strokeColor=none;fillColor=none;align=left;verticalAlign=top;spacingLeft=4;spacingRight=4;overflow=hidden;rotatable=0;points=[[0,0.5],[1,0.5]];portConstraint=eastwest;" vertex="1" parent="NNSwcnHffDECImnnOeYG-37">
          <mxGeometry y="266" width="235" height="26" as="geometry" />
        </mxCell>
        <mxCell id="NNSwcnHffDECImnnOeYG-48" value="VEdgeType (final)" style="swimlane;fontStyle=1;align=center;verticalAlign=top;childLayout=stackLayout;horizontal=1;startSize=26;horizontalStack=0;resizeParent=1;resizeParentMax=0;resizeLast=0;collapsible=1;marginBottom=0;" vertex="1" parent="1">
          <mxGeometry x="40" y="564" width="280" height="254" as="geometry" />
        </mxCell>
        <mxCell id="NNSwcnHffDECImnnOeYG-49" value="- enum { ET_ILLEGAL, ET_ANYEDGE, ET_BOTHEDGE, ET_POSEDGE, ET_NEGEDGE, ET_HIGHEDGE, ET_LOWEDGE, ET_COMBO, ET_INITIAL, ET_SETTLE, ET_NEVER };" style="text;strokeColor=none;fillColor=none;align=left;verticalAlign=top;spacingLeft=4;spacingRight=4;overflow=hidden;rotatable=0;points=[[0,0.5],[1,0.5]];portConstraint=eastwest;whiteSpace=wrap;" vertex="1" parent="NNSwcnHffDECImnnOeYG-48">
          <mxGeometry y="26" width="280" height="64" as="geometry" />
        </mxCell>
        <mxCell id="NNSwcnHffDECImnnOeYG-50" value="" style="line;strokeWidth=1;fillColor=none;align=left;verticalAlign=middle;spacingTop=-1;spacingLeft=3;spacingRight=3;rotatable=0;labelPosition=right;points=[];portConstraint=eastwest;" vertex="1" parent="NNSwcnHffDECImnnOeYG-48">
          <mxGeometry y="90" width="280" height="8" as="geometry" />
        </mxCell>
        <mxCell id="NNSwcnHffDECImnnOeYG-51" value="+ ascii(): char* " style="text;strokeColor=none;fillColor=none;align=left;verticalAlign=top;spacingLeft=4;spacingRight=4;overflow=hidden;rotatable=0;points=[[0,0.5],[1,0.5]];portConstraint=eastwest;" vertex="1" parent="NNSwcnHffDECImnnOeYG-48">
          <mxGeometry y="98" width="280" height="26" as="geometry" />
        </mxCell>
        <mxCell id="NNSwcnHffDECImnnOeYG-53" value="+ verilogKwd(): char* " style="text;strokeColor=none;fillColor=none;align=left;verticalAlign=top;spacingLeft=4;spacingRight=4;overflow=hidden;rotatable=0;points=[[0,0.5],[1,0.5]];portConstraint=eastwest;" vertex="1" parent="NNSwcnHffDECImnnOeYG-48">
          <mxGeometry y="124" width="280" height="26" as="geometry" />
        </mxCell>
        <mxCell id="NNSwcnHffDECImnnOeYG-57" value="+ clockedStmt(): bool" style="text;strokeColor=none;fillColor=none;align=left;verticalAlign=top;spacingLeft=4;spacingRight=4;overflow=hidden;rotatable=0;points=[[0,0.5],[1,0.5]];portConstraint=eastwest;" vertex="1" parent="NNSwcnHffDECImnnOeYG-48">
          <mxGeometry y="150" width="280" height="26" as="geometry" />
        </mxCell>
        <mxCell id="NNSwcnHffDECImnnOeYG-54" value="+ invert(): VEdgeType " style="text;strokeColor=none;fillColor=none;align=left;verticalAlign=top;spacingLeft=4;spacingRight=4;overflow=hidden;rotatable=0;points=[[0,0.5],[1,0.5]];portConstraint=eastwest;" vertex="1" parent="NNSwcnHffDECImnnOeYG-48">
          <mxGeometry y="176" width="280" height="26" as="geometry" />
        </mxCell>
        <mxCell id="NNSwcnHffDECImnnOeYG-55" value="+ exclusiveEdge(const VEdgeType &amp;other): bool" style="text;strokeColor=none;fillColor=none;align=left;verticalAlign=top;spacingLeft=4;spacingRight=4;overflow=hidden;rotatable=0;points=[[0,0.5],[1,0.5]];portConstraint=eastwest;" vertex="1" parent="NNSwcnHffDECImnnOeYG-48">
          <mxGeometry y="202" width="280" height="26" as="geometry" />
        </mxCell>
        <mxCell id="NNSwcnHffDECImnnOeYG-52" value="+operator==(xxx): bool " style="text;strokeColor=none;fillColor=none;align=left;verticalAlign=top;spacingLeft=4;spacingRight=4;overflow=hidden;rotatable=0;points=[[0,0.5],[1,0.5]];portConstraint=eastwest;" vertex="1" parent="NNSwcnHffDECImnnOeYG-48">
          <mxGeometry y="228" width="280" height="26" as="geometry" />
        </mxCell>
        <mxCell id="NNSwcnHffDECImnnOeYG-56" value="1" style="endArrow=open;html=1;endSize=12;startArrow=diamondThin;startSize=14;startFill=1;edgeStyle=orthogonalEdgeStyle;align=left;verticalAlign=bottom;entryX=0.5;entryY=0;entryDx=0;entryDy=0;" edge="1" parent="1" source="NNSwcnHffDECImnnOeYG-38" target="NNSwcnHffDECImnnOeYG-48">
          <mxGeometry x="-1" y="3" relative="1" as="geometry">
            <mxPoint x="650" y="1065" as="sourcePoint" />
            <mxPoint x="520" y="1040" as="targetPoint" />
          </mxGeometry>
        </mxCell>
      </root>
    </mxGraphModel>
  </diagram>
</mxfile>
